<svg id="Capa_1" enable-background="new 0 0 512 512" height="512" viewBox="0 0 512 512" width="512" xmlns="http://www.w3.org/2000/svg"><g><path d="m497.195 341.845c-35.284 99.165-129.978 170.155-241.248 170.155s-205.964-70.99-241.248-170.155c-.093-.258-.186-.505-.278-.762 0 0 482.867.504 482.774.762z" fill="#0ab69f"/><path d="m451.115 341.083c-33.19 92.566-116.41 160.722-218.347 169.869 118.015 10.656 225.864-62.02 264.427-169.107.093-.258.185-.505.278-.762z" fill="#01998d"/><path d="m497.473 170.917h-483.052c35.078-99.556 129.968-170.917 241.526-170.917s206.448 71.361 241.526 170.917z" fill="#fe7d43"/><path d="m255.947 0c-7.814 0-15.543.363-23.179 1.048 101.376 9.1 185.726 77.286 218.347 169.869h46.358c-35.078-99.556-129.968-170.917-241.526-170.917z" fill="#fd6930"/><path d="m493.713 351.065h-475.532c-24.049-59.765-23.955-129.617-.309-189.368h476.15c23.717 59.477 23.684 129.796-.309 189.368z" fill="#f5f8f9"/><path d="m494.022 161.697h-46.358c23.633 59.343 23.64 129.9-.309 189.368h46.358c24.208-60.41 24.079-129.302.309-189.368z" fill="#e8edf2"/><g fill="#314dc9"><path d="m255.947 186.009c-38.247 0-69.991 32.257-69.991 69.991 0 37.668 31.818 69.991 69.991 69.991 37.924 0 69.991-32.173 69.991-69.991 0-38.408-31.345-69.991-69.991-69.991zm43.565 77.717h10.421c-.501 3.541-1.338 7.017-2.524 10.386-.011.028-.055.149-.064.177-1.873 5.264-4.514 10.103-7.76 14.422l-14.955-14.955c-3.017-3.017-7.909-3.017-10.927 0s-3.018 7.909 0 10.927l14.941 14.941c-7.237 5.418-15.803 9.038-24.971 10.354v-11.75c0-4.267-3.459-7.726-7.726-7.726s-7.726 3.459-7.726 7.726v11.75c-9.166-1.316-17.73-4.936-24.968-10.357l14.938-14.938c3.018-3.017 3.018-7.909 0-10.927-3.017-3.017-7.909-3.017-10.927 0l-14.95 14.95c-3.254-4.329-5.902-9.182-7.781-14.463l-.043-.115c-1.19-3.379-2.027-6.859-2.529-10.402h9.958c4.267 0 7.726-3.459 7.726-7.726s-3.459-7.726-7.726-7.726h-9.958c.502-3.543 1.339-7.022 2.528-10.4 1.877-5.328 4.537-10.225 7.817-14.588l14.958 14.958c1.509 1.509 3.486 2.263 5.463 2.263s3.955-.755 5.463-2.263c3.018-3.017 3.018-7.909 0-10.927l-14.944-14.944c7.236-5.418 15.801-9.037 24.974-10.352v12.542c0 4.267 3.459 7.726 7.726 7.726s7.726-3.459 7.726-7.726v-12.542c9.173 1.315 17.738 4.934 24.974 10.352l-14.945 14.945c-3.018 3.017-3.018 7.909 0 10.927 1.509 1.509 3.486 2.263 5.463 2.263s3.955-.755 5.463-2.263l14.959-14.959c3.279 4.363 5.939 9.259 7.816 14.587 1.19 3.379 2.027 6.858 2.529 10.401h-10.421c-4.267 0-7.726 3.459-7.726 7.726.002 4.267 3.461 7.726 7.728 7.726z"/><path d="m255.947 246.956c-3.941 0-7.294 2.521-8.533 6.038-.331.94-.511 1.952-.511 3.006s.18 2.065.511 3.006c.003.009.007.018.01.027 1.246 3.503 4.592 6.011 8.523 6.011s7.276-2.508 8.523-6.011c.003-.009.007-.018.01-.027.331-.94.511-1.952.511-3.006s-.18-2.065-.511-3.006c-1.239-3.517-4.592-6.038-8.533-6.038z"/></g></g></svg>
