<svg id="1inch" width="144" height="144" viewBox="0 0 24 24" fill="none" xmlns="http://www.w3.org/2000/svg">
	<path fill-rule="evenodd" clip-rule="evenodd"
		  d="M21.5066 6.74871C21.9141 6.9298 22.2324 7.19922 22.5274 7.44889L22.5417 7.46096C20.4715 0.284421 13.755 1.08948 13.617 1.13548C13.778 0.882466 14.3761 0.491437 14.9281 0.284421C14.9281 0.284421 12.0759 -0.727654 9.47671 1.06648C9.52271 0.652449 10.0287 0.0314025 10.0287 0.0314025C6.44048 1.57332 6.21046 3.41346 6.90052 4.51674C6.61302 4.37874 6.32552 4.24649 6.03802 4.11424L6.03795 4.11421C5.75043 3.98195 5.46291 3.84969 5.17539 3.71168C3.40425 2.86061 1.88614 2.14756 1.79413 2.12456C1.63312 2.07856 1.56412 2.14756 1.56412 2.14756C1.56412 2.14756 1.49511 2.21657 1.63312 2.35458C2.32451 3.04596 2.93308 3.64709 3.51852 4.2159C1.31035 6.30906 0 9.23209 0 12.4983C0 18.8468 5.15238 24 11.5009 24C17.8493 24 23.0017 18.8468 23.0017 12.4983C23.0017 10.4282 22.4727 8.42784 21.5066 6.74871ZM3.51852 4.2159C4.70548 5.36916 5.79735 6.38956 7.29154 7.75998C6.92352 8.58804 6.87751 9.00207 7.06153 9.4391C7.31455 10.0372 7.29154 10.3362 7.19954 10.7272C7.16649 10.8396 7.06698 11.2064 6.9381 11.6815L6.93809 11.6815L6.93808 11.6815C6.61844 12.8598 6.11819 14.7039 6.00345 14.9825C5.93872 15.149 5.703 15.4715 5.44274 15.8277L5.44271 15.8277L5.4427 15.8277L5.4427 15.8277L5.44268 15.8278C5.05554 16.3575 4.6141 16.9616 4.60034 17.2367C4.57734 17.6967 4.94537 19.7209 5.45141 20.0199C5.84244 20.2269 6.78551 20.6639 7.47556 20.756C7.70558 20.802 7.93559 20.779 8.0506 20.6869C8.51064 20.3879 8.62564 20.3419 8.92467 20.3649L8.99367 20.3879C9.03198 20.3956 9.07285 20.4058 9.11712 20.4169L9.1172 20.4169C9.2058 20.439 9.30803 20.4646 9.4307 20.4799C9.82173 20.5259 10.3278 20.5259 10.7418 20.2499C11.0391 20.0212 11.4386 19.7642 11.8077 19.5267L11.8077 19.5267L11.8078 19.5266C12.1812 19.2864 12.5234 19.0662 12.6969 18.9158C13.111 18.5018 13.387 17.9267 13.387 17.2827C13.387 16.7076 13.778 16.2476 14.2151 15.7876C14.3355 15.6672 14.5084 15.4962 14.7033 15.3035L14.7035 15.3033L14.7037 15.3031L14.7038 15.303L14.7038 15.303L14.7038 15.303L14.7038 15.303L14.7038 15.3029C15.1791 14.8331 15.7847 14.2343 16.0782 13.9244C17.1363 14.2925 17.5273 15.8106 17.5273 16.6386C17.5273 18.9388 15.6642 22.2971 11.3859 22.5501C11.308 22.5501 11.2302 22.5555 11.1498 22.561C11.0638 22.5669 10.9749 22.5731 10.8798 22.5731C5.3134 22.5731 0.759057 17.6507 0.759057 11.8773C0.759057 7.32295 3.49552 4.23891 3.51852 4.2159ZM5.79643 5.27579L4.83036 4.44773C5.26739 4.67775 5.70443 4.90777 6.09546 5.11478C7.29154 5.73583 8.28062 6.28787 8.46463 6.42588L8.51064 6.47188C8.62564 6.60989 8.74065 6.83991 8.53364 7.13893C8.41863 7.29995 8.28062 7.25394 8.0736 7.11593C7.88959 7.00092 6.90052 6.21886 5.79643 5.27579ZM12.4899 17.2367C12.4899 17.6277 12.3059 17.9727 12.0759 18.2258C11.9609 18.3408 11.5009 18.6398 11.1788 18.8468C11.032 18.9517 10.8804 19.0518 10.7327 19.1493L10.7327 19.1493C10.5565 19.2656 10.3859 19.3782 10.2358 19.4909C10.1208 19.5599 9.93674 19.6059 9.63772 19.5599L8.92467 19.4679C9.3617 19.0308 10.5578 18.0878 10.9488 17.9037C11.4089 17.6737 11.6849 17.4207 11.4779 16.8917C11.2938 16.3396 10.5808 16.3626 10.5808 16.3626C10.5808 16.3626 11.0178 16.2476 11.3628 16.2936C10.9258 16.1096 10.3278 16.1556 10.0287 16.3626C9.81505 16.5153 9.70264 16.9819 9.5907 17.4467C9.53396 17.6822 9.47734 17.9173 9.4077 18.1108C9.22589 18.636 8.8489 18.8951 8.29233 19.2776C8.21519 19.3307 8.1346 19.3861 8.0506 19.4449C7.65957 19.6979 7.40655 19.7669 7.22254 19.7439C6.83151 19.6289 6.37148 19.4218 6.04945 19.2608C5.86544 18.9158 5.63542 17.8347 5.61242 17.3977C5.67529 17.2405 5.86707 16.9759 6.04094 16.736L6.04096 16.736L6.04103 16.7359C6.12155 16.6248 6.19823 16.519 6.25647 16.4316C6.6245 15.9256 6.83151 15.6266 6.92352 15.3505C7.08453 14.9595 7.75158 12.4983 8.0046 11.4633C8.25762 11.9003 8.60264 12.6363 8.44163 13.0504C9.26969 12.1763 8.90167 11.1412 8.71765 10.7272C8.55664 10.3132 8.37263 9.50811 8.74065 8.72605C9.08568 7.94399 10.2818 5.82784 10.2818 5.82784C10.2818 5.82784 10.4888 6.37988 10.9258 6.33387C11.3398 6.28787 15.3191 1.82554 15.3191 1.82554C15.3191 1.82554 15.9402 3.89569 14.7901 5.16079C13.64 6.42588 12.6739 6.56389 12.6739 6.56389C12.6739 6.56389 13.962 6.97792 15.2961 6.28787C15.6412 7.52996 15.9402 8.81806 15.9402 8.97907C15.8482 9.14008 14.5601 11.3022 14.4451 11.4403C14.3991 11.4863 14.031 11.5323 13.801 11.5323C13.7021 11.5487 13.6124 11.5626 13.5316 11.5751C13.274 11.6149 13.1065 11.6408 13.019 11.6933C12.835 11.8083 11.7769 13.8094 11.2708 14.7755C10.8108 14.8445 10.3508 15.0055 9.98275 15.4426C10.1668 15.3505 10.6958 15.3505 11.0868 15.3505C11.4319 15.3735 12.3749 16.0636 12.4899 17.1447V17.2367ZM9.79873 18.2028C9.99709 17.9864 10.0682 17.6145 10.1119 17.3863C10.1239 17.3234 10.1338 17.2715 10.1438 17.2367C10.1898 17.0757 10.2818 16.7767 10.4888 16.7537C10.6958 16.7307 11.1328 16.8687 11.0868 17.2137C11.0538 17.4447 10.867 17.5218 10.6621 17.6064C10.5814 17.6397 10.4978 17.6742 10.4198 17.7197C10.2358 17.8347 9.84474 18.1568 9.79873 18.2028ZM19.8045 18.5018C19.5285 15.5576 17.5043 14.1775 16.6072 13.7174C17.6423 13.6024 20.3105 12.7974 18.8384 8.72605C18.8844 8.91007 19.2984 10.9342 18.1254 11.9923C17.0915 12.9267 15.6453 12.7098 15.1382 12.6337C15.0586 12.6218 15.0022 12.6133 14.9741 12.6133C14.7901 12.5903 13.916 13.4414 12.7199 15.0745C12.6049 15.0055 12.1219 14.8215 11.5239 14.8445C12.1219 13.7174 13.019 12.1073 13.157 11.9693C13.203 11.9233 13.594 11.8773 13.824 11.8543C14.2841 11.8083 14.5141 11.7623 14.6061 11.6703C14.6521 11.6013 14.9741 11.0952 15.2961 10.5432C15.5032 10.5662 16.0552 10.6122 16.1242 10.5892C16.1702 10.5432 16.7913 9.43911 16.8143 9.3011C16.835 9.21798 16.4804 7.80223 16.2082 6.71544L16.1242 6.37988C21.8056 9.07108 22.7027 15.0055 19.8045 18.5018ZM14.3301 4.81576C14.9741 4.24072 14.8821 3.25164 14.8821 3.25164L12.95 5.3908C12.927 5.3908 13.525 5.50581 14.3301 4.81576ZM7.42955 16.0636L7.10753 16.9837C7.10753 16.9837 7.49856 16.9837 7.42955 17.4207C7.38355 17.7427 6.94652 18.1568 6.62449 18.1338C6.30247 18.1108 6.25647 17.7197 6.34847 17.5127C6.44048 17.3287 7.42955 16.0636 7.42955 16.0636ZM10.1438 11.4173C10.8338 11.3482 12.0759 10.7962 12.6049 10.3592C13.134 9.89914 13.042 8.88706 12.2139 8.58804C12.4899 8.12801 12.95 7.16194 12.95 7.16194C12.95 7.16194 9.98275 10.6352 9.75273 10.6812C9.52271 10.7272 9.4307 9.85314 9.4307 9.85314C8.74065 11.5323 9.91374 11.9463 10.1438 11.4173ZM10.3968 10.9802L11.9379 9.02507C11.9379 9.02507 12.6049 9.48511 12.1679 10.0141C11.6159 10.6352 10.3968 10.9802 10.3968 10.9802ZM10.3048 5.13779C10.3048 5.13779 10.6038 1.61852 12.72 0.675451C12.559 0.721454 8.25764 2.03255 10.3048 5.13779ZM8.76368 1.11248C8.76184 1.1174 8.75797 1.1244 8.75227 1.13339C8.75863 1.12067 8.76259 1.11357 8.76368 1.11248ZM8.65026 1.27335L8.65029 1.27331L8.6503 1.27329C8.69865 1.20906 8.73445 1.16149 8.75227 1.13339C8.62411 1.3899 7.52306 3.93339 9.40773 5.62082C6.1945 4.5361 8.13486 1.95811 8.65025 1.27336L8.65026 1.27335ZM14.4911 2.26257L13.433 3.41266C12.582 3.66567 11.7539 4.12571 10.9718 4.88477C10.9718 4.44773 12.2369 2.53859 14.4911 2.26257ZM15.8252 3.25164C15.8482 2.95262 15.8252 2.6076 15.7792 2.28557C17.1593 2.46959 18.7924 3.27465 20.6556 5.09178C19.1145 4.24072 17.4813 3.45866 15.8252 3.25164ZM16.2392 4.74676C16.2392 4.74676 21.3686 7.00093 22.3117 13.3264C22.4497 5.09178 16.6073 4.67775 16.2392 4.74676Z"
		  fill="#fff"/>
</svg>
